<!-- Generated by IcoMoon.io -->
<svg version="1.1" xmlns="http://www.w3.org/2000/svg" width="32" height="32" viewBox="0 0 32 32">
<title>grass</title>
<path d="M28.453 0.253c-0.165-0.237-0.477-0.32-0.738-0.196-3.296 1.572-8.122 4.806-11.76 11.144 2.109 3.202 3.937 7.324 4.895 12.573 0.126-5.245 1.166-16.55 7.53-22.76 0.207-0.201 0.237-0.523 0.073-0.76z"></path>
<path d="M6.71 4.79c-0.098-0.065-0.211-0.096-0.323-0.096-0.16 0-0.32 0.065-0.436 0.191-0.196 0.213-0.208 0.536-0.031 0.764 6.417 8.219 4.639 22.403 4.125 25.668-0.027 0.171 0.021 0.345 0.134 0.477 0.112 0.13 0.277 0.207 0.45 0.207h8.26c0.159 0 0.309-0.063 0.42-0.175s0.173-0.264 0.171-0.422c-0.191-15.974-8.035-23.512-12.77-26.613z"></path>
<path d="M1.709 19.113c-0.114-0.075-0.267-0.056-0.36 0.044s-0.099 0.254-0.015 0.362c3.043 3.896 2.2 10.621 1.955 12.169-0.013 0.082 0.011 0.157 0.063 0.22 0.053 0.062 0.132 0.092 0.214 0.092h3.916c0.074 0 0.146-0.024 0.199-0.076s0.082-0.122 0.081-0.197c-0.090-7.573-3.808-11.143-6.054-12.614z"></path>
<path d="M30.622 14.283c-0.129-0.139-0.337-0.166-0.497-0.062-3.096 2.028-8.223 6.956-8.349 17.402-0.002 0.102 0.041 0.195 0.112 0.269 0.073 0.074 0.171 0.108 0.275 0.108h5.4c0.114 0 0.22-0.043 0.294-0.13 0.072-0.086 0.104-0.196 0.087-0.307-0.336-2.135-1.499-11.409 2.698-16.783 0.117-0.148 0.108-0.358-0.021-0.497z"></path>
</svg>
