<!-- Generated by IcoMoon.io -->
<svg version="1.1" xmlns="http://www.w3.org/2000/svg" width="32" height="32" viewBox="0 0 32 32">
<title>location</title>
<path d="M16.185 13.907c2.019 0 3.662-1.643 3.662-3.662s-1.643-3.662-3.662-3.662-3.662 1.643-3.662 3.662 1.643 3.662 3.662 3.662zM16.185 7.63c1.442 0 2.616 1.173 2.616 2.616s-1.173 2.616-2.616 2.616-2.616-1.173-2.616-2.616 1.173-2.616 2.616-2.616z"></path>
<path d="M26.27 19.662h-3.746l1.594-2.302c3.011-4.013 2.575-10.609-0.932-14.116-1.894-1.895-4.414-2.939-7.094-2.939s-5.199 1.044-7.094 2.939c-3.507 3.506-3.942 10.103-0.944 14.1l1.605 2.318h-3.93l-5.73 12.032h32l-5.73-12.032zM8.904 16.732c-2.72-3.627-2.33-9.584 0.835-12.749 1.697-1.697 3.954-2.632 6.354-2.632s4.657 0.935 6.354 2.632c3.165 3.165 3.555 9.122 0.823 12.764l-7.178 10.365-7.189-10.381zM6.391 20.708h3.994l5.708 8.243 5.708-8.243h3.809l4.733 9.94h-28.685l4.733-9.94z"></path>
</svg>
