<!-- Generated by IcoMoon.io -->
<svg version="1.1" xmlns="http://www.w3.org/2000/svg" width="32" height="32" viewBox="0 0 32 32">
<title>more</title>
<path d="M1.333 15.333c0-8.468 6.865-15.333 15.333-15.333s15.333 6.865 15.333 15.333c0 8.468-6.865 15.333-15.333 15.333s-15.333-6.865-15.333-15.333zM30.667 15.333c0-7.732-6.268-14-14-14s-14 6.268-14 14c0 7.732 6.268 14 14 14s14-6.268 14-14zM17 9.333c0.92 0 1.667-0.746 1.667-1.667s-0.746-1.667-1.667-1.667c-0.92 0-1.667 0.746-1.667 1.667s0.746 1.667 1.667 1.667zM13.333 10.667v1.333h2v9.333h-2v1.333h7.333v-1.333h-2v-10.667h-5.333z"></path>
</svg>
