<!-- Generated by IcoMoon.io -->
<svg version="1.1" xmlns="http://www.w3.org/2000/svg" width="32" height="32" viewBox="0 0 32 32">
<title>quote</title>
<path d="M17.46 10.219c0-1.913 0.642-3.446 1.928-4.599s2.887-1.731 4.797-1.731c2.441 0 4.352 0.775 5.737 2.324s2.078 3.61 2.078 6.182c0 2.637-0.411 4.88-1.236 6.726s-1.812 3.377-2.968 4.599c-1.152 1.22-2.356 2.176-3.61 2.868-1.252 0.692-2.34 1.201-3.263 1.533l-3.166-5.341c1.319-0.529 2.441-1.369 3.363-2.523 0.924-1.154 1.451-2.39 1.584-3.708-1.318 0-2.523-0.579-3.611-1.732s-1.631-2.687-1.631-4.598zM0.348 10.219c0-1.913 0.643-3.446 1.929-4.599 1.286-1.155 2.886-1.731 4.797-1.731 2.442 0 4.352 0.775 5.737 2.324s2.078 3.61 2.078 6.182c0 2.637-0.411 4.88-1.236 6.726s-1.812 3.377-2.967 4.599c-1.152 1.22-2.357 2.176-3.611 2.868-1.252 0.692-2.339 1.201-3.263 1.533l-3.165-5.341c1.319-0.529 2.44-1.369 3.362-2.523 0.924-1.154 1.452-2.39 1.583-3.708-1.318 0-2.523-0.579-3.61-1.732-1.089-1.154-1.633-2.687-1.633-4.598z"></path>
</svg>
