<!-- Generated by IcoMoon.io -->
<svg version="1.1" xmlns="http://www.w3.org/2000/svg" width="32" height="32" viewBox="0 0 32 32">
<title>send</title>
<path d="M25.391 9.529l-3.319 2.129c-0.552 0.356-1.108 0.707-1.658 1.067l-3.307 2.147c-0.552 0.357-1.101 0.718-1.65 1.079l-1.648 1.083c-0.549 0.361-1.099 0.72-1.646 1.085l-1.642 1.092c-0.547 0.364-1.095 0.727-1.64 1.095l-1.636 1.101c-0.391 0.265-0.783 0.531-1.174 0.797l2.975 5.438c0.362 0.662 1.242 0.821 1.813 0.328l2.165-1.868-1.026-0.527-0.389-0.122c-0.025-0.008-0.016-0.032 0.017-0.068l-0.099-0.051c-0.454-0.233-0.634-0.791-0.4-1.245 0.045-0.088 0.106-0.169 0.172-0.235 0.77-0.762 1.544-1.52 2.31-2.285l2.302-2.293 3.439-3.453 3.426-3.466 3.044-3.103c-0.144 0.092-0.288 0.183-0.431 0.275z"></path>
<path d="M30.376 3.795c-0.247 0.072-0.526 0.193-0.84 0.377l-29.005 14.086c-0.784 0.375-0.675 1.524 0.167 1.744l3.805 0.992c0.6-0.356 1.199-0.714 1.797-1.072l1.688-1.019c0.564-0.338 1.124-0.681 1.685-1.024l1.683-1.028c0.562-0.341 1.119-0.689 1.679-1.034l1.677-1.037c0.559-0.345 1.118-0.691 1.675-1.040l3.342-2.092c0.558-0.347 1.111-0.702 1.667-1.053l3.331-2.11c0.556-0.35 1.108-0.707 1.662-1.061l3.32-2.127c0.292-0.187 0.681-0.102 0.869 0.19 0.16 0.25 0.121 0.57-0.076 0.774l-0.003 0.003c-0.75 0.781-1.505 1.557-2.251 2.342l-4.485 4.701-3.35 3.539-1.113 1.183-2.224 2.369-2.215 2.377c-0.442 0.473-0.881 0.948-1.32 1.424l1.794 0.837 9.501 2.885c0.503 0.153 1.033-0.141 1.171-0.648l5.948-21.917c0.26-0.957-0.627-1.84-1.578-1.561z"></path>
</svg>
