<!-- Generated by IcoMoon.io -->
<svg version="1.1" xmlns="http://www.w3.org/2000/svg" width="32" height="32" viewBox="0 0 32 32">
<title>smartphone</title>
<path d="M18.934 16.531c-0.294 0-0.533 0.238-0.533 0.533v7.469h-16v-20.267h16v7.466c0 0.295 0.239 0.533 0.533 0.533s0.533-0.238 0.533-0.533v-9.383c0-1.295-1.054-2.349-2.35-2.349h-13.434c-1.295 0-2.349 1.054-2.349 2.349v27.301c0 1.295 1.054 2.35 2.349 2.35h13.434c1.295 0 2.349-1.054 2.349-2.349v-12.587c0.001-0.295-0.238-0.533-0.533-0.533zM3.683 1.067h13.434c0.707 0 1.283 0.575 1.283 1.283v0.851h-16v-0.851c0.001-0.707 0.576-1.283 1.283-1.283zM17.117 30.933h-13.434c-0.707 0-1.283-0.575-1.283-1.283v-4.051h16v4.051c0 0.707-0.575 1.283-1.283 1.283z"></path>
<path d="M10.401 26.133c-1.177 0-2.133 0.957-2.133 2.133s0.957 2.133 2.133 2.133 2.133-0.957 2.133-2.133-0.957-2.133-2.133-2.133zM10.401 29.333c-0.588 0-1.067-0.478-1.067-1.067s0.478-1.067 1.067-1.067 1.067 0.478 1.067 1.067-0.478 1.067-1.067 1.067z"></path>
<path d="M8.267 2.667h2.133c0.294 0 0.533-0.238 0.533-0.533s-0.239-0.533-0.533-0.533h-2.133c-0.294 0-0.533 0.238-0.533 0.533s0.238 0.533 0.533 0.533z"></path>
<path d="M12.001 2.667h0.533c0.294 0 0.533-0.238 0.533-0.533s-0.239-0.533-0.533-0.533h-0.533c-0.294 0-0.533 0.238-0.533 0.533s0.238 0.533 0.533 0.533z"></path>
<path d="M30.626 14.604c0.054-0.13 0.054-0.277 0-0.407-0.027-0.066-0.067-0.125-0.116-0.174l-6.399-6.399c-0.209-0.209-0.546-0.209-0.754 0s-0.209 0.546 0 0.754l5.49 5.49h-18.979c-0.294 0-0.533 0.238-0.533 0.533s0.239 0.533 0.533 0.533h18.979l-5.49 5.49c-0.209 0.209-0.209 0.546 0 0.754 0.104 0.104 0.241 0.156 0.377 0.156s0.273-0.052 0.377-0.156l6.399-6.399c0.049-0.049 0.089-0.108 0.116-0.174z"></path>
</svg>
