<!-- Generated by IcoMoon.io -->
<svg version="1.1" xmlns="http://www.w3.org/2000/svg" width="32" height="32" viewBox="0 0 32 32">
<title>youtube</title>
<path d="M27.907 4.888l-2.573-0.307c-2.802-0.366-6.044-0.575-9.333-0.575s-6.531 0.209-9.711 0.615l0.377-0.039-2.533 0.32c-2.332 0.282-4.122 2.244-4.133 4.626v12.934c0.009 2.371 1.779 4.326 4.070 4.624l0.024 0.003 2.533 0.32c2.813 0.371 6.067 0.584 9.37 0.587h0.003c3.294-0.004 6.534-0.217 9.713-0.627l-0.38 0.040 2.533-0.32c2.331-0.282 4.122-2.244 4.133-4.625v-12.934c-0.002-2.377-1.774-4.339-4.070-4.638l-0.024-0.003zM22.36 16.554l-9.333 6c-0.102 0.067-0.226 0.106-0.36 0.107h-0c-0.368 0-0.667-0.298-0.667-0.667v0-12c0.001-0.368 0.299-0.666 0.667-0.666 0.134 0 0.258 0.039 0.363 0.107l-0.003-0.002 9.333 6c0.185 0.121 0.305 0.326 0.305 0.56s-0.12 0.439-0.302 0.558l-0.003 0.002z"></path>
</svg>
