<svg version="1" xmlns="http://www.w3.org/2000/svg" width="378.667" height="378.667" viewBox="0 0 284.000000 284.000000"><path d="M118.6 21.6c-6.8 2.1-16.2 11.6-20.4 20.5-8.7 18.2-8.8 43.7-.3 61.1 1.5 3.2 2.5 5.8 2.1 5.8-.4 0-4.8-1.8-9.9-4-5-2.2-9.5-4-9.9-4-.4 0-7.3 8.8-15.2 19.5-8 10.7-14.8 19.4-15.1 19.5-.4 0-.9-1.7-1.3-3.8-.9-5.9-6.3-15.8-10.7-19.6-15.7-13.4-35.3 1-37.5 27.7-1.2 13.9 3.3 27.3 11.7 35.2 2.7 2.5 4.9 4.7 4.9 4.9 0 .1-3.2 4.5-7 9.6-6.3 8.4-6.9 9.6-5.5 10.9.9.9 1.8 1.2 2.3.6.5-.6 17.2-23.4 37.2-50.7l36.3-49.7 9.6 8.4c5.3 4.6 25.1 22 44.1 38.7l34.5 30.3.3 4.7.3 4.7 8.2 2.5c34.7 10.5 105.5 31.6 106 31.6.4 0 .7-1 .7-2.3 0-1.6-5.4-7.1-19.5-20.1-10.7-9.9-19.5-18.1-19.5-18.2 0-.2 2.4-1.5 5.4-2.9 10.7-5.1 20.8-19.3 25.2-35.5 2.5-9.1 2.6-32 .1-41-2.7-10.2-9.1-22.3-15-28.3-7.5-7.7-13.3-10.2-23.2-10.2-7 0-8.7.4-13.3 3-11.2 6.2-20 19.3-24.3 36.4-1.8 7.3-2.1 10.4-1.6 22.5.3 8.4 1.1 16 2 18.8l1.5 4.7-3.2-1.3c-1.7-.7-16.5-7.1-32.9-14.1l-29.8-12.8 5.1-2.9c9.8-5.6 18.3-20.2 21.1-36.3 1.9-10.8.7-25.4-2.8-35.6-7.9-22.8-23.6-33.8-40.7-28.3z"/><path d="M47.7 156.3L14 201.4V214l4.6 1.2 4.6 1.3-.4 24.2-.3 24.3H52l.2-22.2.3-22.3 24-2.1c13.2-1.2 27-2.5 30.8-2.9l6.7-.6V265h152.9l.3-15.7.3-15.7 7.5-1.6 7.5-1.7-8-2.5c-4.4-1.4-31.1-9.4-59.2-17.8L164 194.6v-3.5c0-3.4-1.8-5.2-37.6-38.6-20.7-19.3-39.2-36.4-41.3-38.2l-3.7-3.1-33.7 45.1zm54.8 37.5c-.6.6-32.7 6.1-35.8 6.2-1.6 0-1.7-1.2-1.5-14.7l.3-14.7L84 167l18.5-3.5.3 14.9c.1 8.2 0 15.1-.3 15.4z"/><path d="M96 168c-1.9.4-9 1.8-15.7 3L68 173.2v23.1l3.8-.6c2-.3 9.2-1.4 16-2.4l12.2-1.7v-12.3c0-6.8-.1-12.3-.2-12.2-.2.1-1.9.5-3.8.9zM90.8 222.7c-2.7.2-4.8.6-4.8.9 0 1 9.3 16.4 9.9 16.4.6 0 9.1-16.4 9.1-17.5 0-.5-6-.4-14.2.2zM69 224.7c-3 .2-5.9.8-6.4 1.3-.4.4.4 3 2 5.7 4.6 8.1 4.4 8.1 8.6.1 4.3-8.3 4.2-7.9 2.6-7.6-.7.1-3.8.3-6.8.5zM103.6 236.4l-4.8 9.5 5.1 8.8 5.1 8.8v-18.3c0-10-.1-18.2-.2-18.2-.2 0-2.5 4.3-5.2 9.4zM57 244.5c0 18.7-.2 18.5 5.9 6.5l3.8-7.5-4.8-8-4.9-8v17zM75.8 238.4l-3.8 6.5 4.3 7.1c4.1 6.9 4.2 7 4.5 3.8.1-1.8-.1-7.9-.5-13.6l-.8-10.4-3.7 6.6zM85 246.4c0 7.5.2 13.6.5 13.6s2.1-3.3 4.1-7.2l3.7-7.3-2.9-5.3c-5.1-9.4-5.4-9-5.4 6.2zM65.1 257.2l-4 7.3 8.6.3c4.7.2 8.7.1 9-.1.5-.6-8-14.7-8.9-14.7-.3 0-2.5 3.3-4.7 7.2zM92.7 256.9c-2 3.8-3.7 7.1-3.7 7.5 0 .3 3.6.6 8 .6s8-.3 8-.8c0-.4-2-3.7-4.3-7.4l-4.3-6.8-3.7 6.9z"/></svg>