<?xml version="1.0" encoding="UTF-8"?><!DOCTYPE svg PUBLIC "-//W3C//DTD SVG 1.1//EN" "http://www.w3.org/Graphics/SVG/1.1/DTD/svg11.dtd"><svg xmlns="http://www.w3.org/2000/svg"><symbol id="arrow-b" viewBox="0 0 32 32"><title>arrow-b</title><path d="M28.267 6.133L16 18.4 3.733 6.133 0 9.866l16 16 16-16z"/></symbol><symbol id="arrow-r" viewBox="0 0 306 306"><path d="M270.3 58.65L153 175.95 35.7 58.65 0 94.35l153 153 153-153z"/></symbol><symbol id="arrow" viewBox="0 0 32 32"><title>arrow</title><path d="M10.022 30.09c-.198.198-.447.298-.719.298s-.521-.099-.719-.298a1.018 1.018 0 0 1 0-1.439L21.235 16 8.584 3.349a1.018 1.018 0 0 1 1.439-1.439l13.371 13.371a1.018 1.018 0 0 1 0 1.439L10.023 30.091z"/></symbol><symbol id="avatar" viewBox="0 0 482.9 482.9"><path d="M239.7 260.2h3.2c29.3-.5 53-10.8 70.5-30.5 38.5-43.4 32.1-117.8 31.4-124.9-2.5-53.3-27.7-78.8-48.5-90.7C280.8 5.2 262.7.4 242.5 0H240.8c-11.1 0-32.9 1.8-53.8 13.7-21 11.9-46.6 37.4-49.1 91.1-.7 7.1-7.1 81.5 31.4 124.9 17.4 19.7 41.1 30 70.4 30.5zm-75.1-152.9c0-.3.1-.6.1-.8 3.3-71.7 54.2-79.4 76-79.4H241.9c27 .6 72.9 11.6 76 79.4 0 .3 0 .6.1.8.1.7 7.1 68.7-24.7 104.5-12.6 14.2-29.4 21.2-51.5 21.4h-1c-22-.2-38.9-7.2-51.4-21.4-31.7-35.6-24.9-103.9-24.8-104.5z"/><path d="M446.8 383.6v-.3c0-.8-.1-1.6-.1-2.5-.6-19.8-1.9-66.1-45.3-80.9-.3-.1-.7-.2-1-.3-45.1-11.5-82.6-37.5-83-37.8-6.1-4.3-14.5-2.8-18.8 3.3-4.3 6.1-2.8 14.5 3.3 18.8 1.7 1.2 41.5 28.9 91.3 41.7 23.3 8.3 25.9 33.2 26.6 56 0 .9 0 1.7.1 2.5.1 9-.5 22.9-2.1 30.9-16.2 9.2-79.7 41-176.3 41-96.2 0-160.1-31.9-176.4-41.1-1.6-8-2.3-21.9-2.1-30.9 0-.8.1-1.6.1-2.5.7-22.8 3.3-47.7 26.6-56 49.8-12.8 89.6-40.6 91.3-41.7 6.1-4.3 7.6-12.7 3.3-18.8-4.3-6.1-12.7-7.6-18.8-3.3-.4.3-37.7 26.3-83 37.8-.4.1-.7.2-1 .3-43.4 14.9-44.7 61.2-45.3 80.9 0 .9 0 1.7-.1 2.5v.3c-.1 5.2-.2 31.9 5.1 45.3 1 2.6 2.8 4.8 5.2 6.3 3 2 74.9 47.8 195.2 47.8s192.2-45.9 195.2-47.8c2.3-1.5 4.2-3.7 5.2-6.3 5-13.3 4.9-40 4.8-45.2z"/></symbol><symbol id="call" viewBox="0 0 32 32"><title>call</title><path d="M25.29 19.823c-.655-.682-1.445-1.047-2.283-1.047-.831 0-1.628.358-2.31 1.04l-2.134 2.127c-.176-.095-.351-.182-.52-.27-.243-.122-.473-.236-.669-.358-1.999-1.27-3.816-2.924-5.558-5.065-.844-1.067-1.412-1.965-1.824-2.877.554-.507 1.067-1.033 1.567-1.54.189-.189.378-.385.567-.574 1.418-1.418 1.418-3.255 0-4.674l-1.844-1.844c-.209-.209-.425-.425-.628-.642a31.411 31.411 0 0 0-1.27-1.256c-.655-.648-1.439-.993-2.263-.993s-1.621.344-2.296.993l-.014.014-2.296 2.317A4.94 4.94 0 0 0 .049 8.315c-.162 1.972.419 3.809.865 5.011 1.094 2.951 2.729 5.687 5.167 8.618 2.958 3.532 6.517 6.322 10.583 8.287 1.553.736 3.627 1.607 5.943 1.756.142.007.29.014.425.014 1.56 0 2.87-.561 3.897-1.675.007-.014.02-.02.027-.034.351-.425.756-.81 1.182-1.222.29-.277.588-.567.878-.871.669-.696 1.02-1.506 1.02-2.337 0-.837-.358-1.641-1.04-2.317l-3.708-3.721zm2.418 7.112c-.007 0-.007.007 0 0-.263.284-.534.54-.824.824-.439.419-.885.858-1.303 1.351-.682.729-1.486 1.074-2.539 1.074-.101 0-.209 0-.311-.007-2.006-.128-3.87-.912-5.268-1.58-3.823-1.851-7.179-4.478-9.969-7.807-2.303-2.776-3.843-5.342-4.863-8.098-.628-1.682-.858-2.992-.756-4.228.068-.79.371-1.445.932-2.006L5.11 4.155c.331-.311.682-.48 1.027-.48.425 0 .77.257.986.473l.02.02c.412.385.804.783 1.216 1.209.209.216.425.432.642.655l1.844 1.844c.716.716.716 1.378 0 2.094-.196.196-.385.392-.581.581a35.386 35.386 0 0 1-1.695 1.648c-.014.014-.027.02-.034.034-.581.581-.473 1.148-.351 1.533l.02.061c.48 1.162 1.155 2.256 2.181 3.559l.007.007c1.864 2.296 3.829 4.086 5.997 5.457.277.176.561.317.831.453.243.122.473.236.669.358.027.014.054.034.081.047.23.115.446.169.669.169.561 0 .912-.351 1.027-.466l2.31-2.31c.23-.23.594-.507 1.02-.507.419 0 .763.263.973.493l.014.014 3.721 3.721c.696.689.696 1.398.007 2.114zM17.294 7.612c1.77.297 3.377 1.135 4.66 2.418s2.114 2.891 2.418 4.66a.905.905 0 0 0 .898.756c.054 0 .101-.007.155-.014a.913.913 0 0 0 .75-1.054c-.365-2.141-1.378-4.093-2.924-5.639s-3.498-2.56-5.639-2.924c-.5-.081-.966.25-1.054.743s.236.973.736 1.054zM31.963 14.116c-.601-3.525-2.263-6.734-4.815-9.287S21.387.615 17.861.014a.909.909 0 0 0-1.047.743c-.081.5.25.966.75 1.054 3.147.534 6.018 2.026 8.3 4.302a15.296 15.296 0 0 1 4.302 8.3.905.905 0 0 0 .898.756c.054 0 .101-.007.155-.014a.895.895 0 0 0 .743-1.04z"/></symbol><symbol id="clock" viewBox="0 0 32 32"><title>clock</title><path d="M16 0C7.178 0 0 7.178 0 16s7.178 16 16 16 16-7.178 16-16S24.822 0 16 0zm0 30.933C7.766 30.933 1.067 24.234 1.067 16S7.766 1.067 16 1.067 30.933 7.766 30.933 16 24.234 30.933 16 30.933z"/><path d="M16.533 13.878V8.469a.533.533 0 1 0-1.066 0v5.409a2.13 2.13 0 0 0-1.524 1.524h-3.809a.533.533 0 1 0 0 1.066h3.809a2.132 2.132 0 0 0 2.058 1.6 2.135 2.135 0 0 0 2.133-2.133c0-.991-.683-1.819-1.6-2.058zM16 17.002a1.068 1.068 0 0 1 0-2.134 1.067 1.067 0 0 1 0 2.134zM16 5.269a.533.533 0 0 0 .533-.533v-.533a.533.533 0 1 0-1.066 0v.533c0 .295.239.533.533.533zM16 26.602a.533.533 0 0 0-.533.533v.533a.533.533 0 1 0 1.066 0v-.533a.533.533 0 0 0-.533-.533zM27.733 15.402H27.2a.533.533 0 1 0 0 1.066h.533a.533.533 0 1 0 0-1.066zM4.8 15.402h-.533a.533.533 0 1 0 0 1.066H4.8a.533.533 0 1 0 0-1.066zM23.919 7.261l-.377.377a.532.532 0 0 0 .377.91.532.532 0 0 0 .377-.156l.377-.377a.534.534 0 0 0-.754-.754zM7.703 23.478l-.377.377a.532.532 0 0 0 .377.91.532.532 0 0 0 .377-.156l.377-.377a.534.534 0 0 0-.754-.754zM24.297 23.478a.533.533 0 1 0-.754.754l.377.377a.532.532 0 1 0 .754-.754l-.377-.377zM8.081 7.261a.533.533 0 1 0-.754.754l.377.377a.532.532 0 1 0 .754-.754l-.377-.377z"/></symbol><symbol id="grass-leaves" viewBox="0 0 46.132 46.132"><path d="M41.018.365a.85.85 0 0 0-1.064-.282C35.202 2.349 28.245 7.011 23 16.148c3.04 4.616 5.675 10.559 7.057 18.125.181-7.561 1.681-23.859 10.856-32.812a.851.851 0 0 0 .105-1.096zM9.673 6.905a.854.854 0 0 0-1.094.136.853.853 0 0 0-.044 1.101c9.251 11.848 6.688 32.297 5.946 37.004a.854.854 0 0 0 .841.987H27.23a.85.85 0 0 0 .852-.862C27.806 22.242 16.498 11.376 9.673 6.905zM2.464 27.554a.403.403 0 1 0-.54.586c4.387 5.617 3.172 15.312 2.819 17.543a.39.39 0 0 0 .091.317c.077.09.19.132.308.132h5.645c.107 0 .211-.034.287-.11s.118-.176.117-.284c-.13-10.918-5.49-16.064-8.727-18.184zM44.146 20.59a.557.557 0 0 0-.716-.089c-4.463 2.923-11.854 10.028-12.036 25.087a.545.545 0 0 0 .161.388.547.547 0 0 0 .397.156h7.785a.547.547 0 0 0 .424-.187.556.556 0 0 0 .126-.443c-.485-3.078-2.161-16.447 3.889-24.195a.552.552 0 0 0-.03-.717z"/></symbol><symbol id="grass" viewBox="0 0 32 32"><title>grass</title><path d="M28.453.253a.59.59 0 0 0-.738-.196c-3.296 1.572-8.122 4.806-11.76 11.144 2.109 3.202 3.937 7.324 4.895 12.573.126-5.245 1.166-16.55 7.53-22.76a.591.591 0 0 0 .073-.76zM6.71 4.79a.592.592 0 0 0-.79.859c6.417 8.219 4.639 22.403 4.125 25.668a.59.59 0 0 0 .584.684h8.26a.59.59 0 0 0 .591-.597C19.289 15.43 11.445 7.892 6.71 4.791zM1.709 19.113a.28.28 0 0 0-.375.406c3.043 3.896 2.2 10.621 1.955 12.169a.27.27 0 0 0 .063.22.277.277 0 0 0 .214.092h3.916c.074 0 .146-.024.199-.076s.082-.122.081-.197c-.09-7.573-3.808-11.143-6.054-12.614zM30.622 14.283a.387.387 0 0 0-.497-.062c-3.096 2.028-8.223 6.956-8.349 17.402a.377.377 0 0 0 .387.377h5.4a.378.378 0 0 0 .381-.437c-.336-2.135-1.499-11.409 2.698-16.783a.381.381 0 0 0-.021-.497z"/></symbol><symbol id="location" viewBox="0 0 32 32"><title>location</title><path d="M16.185 13.907c2.019 0 3.662-1.643 3.662-3.662s-1.643-3.662-3.662-3.662-3.662 1.643-3.662 3.662 1.643 3.662 3.662 3.662zm0-6.277c1.442 0 2.616 1.173 2.616 2.616s-1.173 2.616-2.616 2.616-2.616-1.173-2.616-2.616 1.173-2.616 2.616-2.616z"/><path d="M26.27 19.662h-3.746l1.594-2.302c3.011-4.013 2.575-10.609-.932-14.116C21.292 1.349 18.772.305 16.092.305s-5.199 1.044-7.094 2.939c-3.507 3.506-3.942 10.103-.944 14.1l1.605 2.318h-3.93l-5.73 12.032h32l-5.73-12.032zm-17.366-2.93c-2.72-3.627-2.33-9.584.835-12.749 1.697-1.697 3.954-2.632 6.354-2.632s4.657.935 6.354 2.632c3.165 3.165 3.555 9.122.823 12.764l-7.178 10.365-7.189-10.381zm-2.513 3.976h3.994l5.708 8.243 5.708-8.243h3.809l4.733 9.94H1.658l4.733-9.94z"/></symbol><symbol id="more" viewBox="0 0 32 32"><title>more</title><path d="M1.333 15.333C1.333 6.865 8.198 0 16.666 0s15.333 6.865 15.333 15.333-6.865 15.333-15.333 15.333S1.333 23.801 1.333 15.333zm29.334 0c0-7.732-6.268-14-14-14s-14 6.268-14 14 6.268 14 14 14 14-6.268 14-14zM17 9.333a1.667 1.667 0 1 0 0-3.334 1.667 1.667 0 0 0 0 3.334zm-3.667 1.334V12h2v9.333h-2v1.333h7.333v-1.333h-2V10.666h-5.333z"/></symbol><symbol id="paper-plane" viewBox="0 0 32 32"><title>paper-plane</title><path d="M32 3.524v-.011V3.5v-.024l-.002-.021v-.003l-.001-.012-.002-.013-.003-.019-.005-.027-.001-.003a.105.105 0 0 1-.005-.019l-.008-.026-.005-.012-.005-.011-.009-.021-.012-.023-.006-.011-.005-.009a.54.54 0 0 0-.02-.031l-.006-.01v-.001l-.001-.001a.438.438 0 0 0-.02-.025l-.013-.015-.006-.006-.01-.01-.021-.021-.001-.001-.009-.007-.004-.003-.006-.006-.004-.003-.014-.011-.014-.01a.185.185 0 0 0-.027-.017l-.02-.011a.15.15 0 0 0-.022-.011l-.009-.004a.014.014 0 0 0-.006-.002l-.01-.004-.019-.008-.021-.007-.012-.004-.013-.004c-.004-.002-.019-.004-.028-.006l-.016-.003-.004-.001L31.549 3a.164.164 0 0 0-.022-.002h-.049l-.02.002-.013.001a.089.089 0 0 0-.015.002.142.142 0 0 0-.02.004l-.025.005-.003.001-.021.006a.241.241 0 0 0-.025.008l-.012.005-.003.001-31 12a.5.5 0 0 0 .001.933l9.242 3.555 2.962 9.133.002.004.002.008c.007.02.016.039.025.058l.006.012c.009.017.02.034.031.051l.004.007.002.003.003.003.012.015.014.018.012.012.006.006a.073.073 0 0 1 .008.009l.009.009.009.008c.01.008.019.017.03.024l.002.002.003.002.009.006a.838.838 0 0 0 .05.031l.008.005.003.001c.017.008.033.016.051.022l.011.004.015.005a.36.36 0 0 0 .074.017.583.583 0 0 0 .072.006h.006a.407.407 0 0 0 .061-.005l.009-.001.013-.003a.4.4 0 0 0 .047-.011l.015-.004.003-.001.007-.003a.195.195 0 0 1 .022-.008l.029-.012.004-.002.003-.001.014-.007a.254.254 0 0 0 .028-.016l.018-.012.005-.003.024-.018.014-.011.014-.013.011-.01a.63.63 0 0 0 .043-.047l.003-.004a.031.031 0 0 0 .004-.006l.003-.004 3.654-4.937a.5.5 0 0 0-.804-.594l-1.587 2.145 1.262-3.444 11.942 4.533a.491.491 0 0 0 .429-.035.501.501 0 0 0 .242-.356L31.992 3.58v-.003l.003-.025.002-.023zm-3.902 1.829L13.816 15.725a.5.5 0 0 0 .587.808l13.643-9.909-12.768 14.337a.49.49 0 0 0-.116.178c-.005.012-.008.024-.011.036l-2.121 5.791-2.588-7.982a.496.496 0 0 0-.296-.312l-.002-.001-8.254-3.175L28.099 5.351zm-.453 19.991l-11.158-4.235L30.75 5.094l-3.105 20.251z"/><path d="M11.594 18.457a.491.491 0 0 0 .293-.096l.972-.706a.5.5 0 0 0-.587-.809l-.972.706a.5.5 0 0 0 .294.904z"/></symbol><symbol id="phone-call" viewBox="0 0 473.806 473.806"><g fill="#007200"><path d="M374.456 293.506c-9.7-10.1-21.4-15.5-33.8-15.5-12.3 0-24.1 5.3-34.2 15.4l-31.6 31.5c-2.6-1.4-5.2-2.7-7.7-4-3.6-1.8-7-3.5-9.9-5.3-29.6-18.8-56.5-43.3-82.3-75-12.5-15.8-20.9-29.1-27-42.6 8.2-7.5 15.8-15.3 23.2-22.8 2.8-2.8 5.6-5.7 8.4-8.5 21-21 21-48.2 0-69.2l-27.3-27.3c-3.1-3.1-6.3-6.3-9.3-9.5-6-6.2-12.3-12.6-18.8-18.6-9.7-9.6-21.3-14.7-33.5-14.7s-24 5.1-34 14.7l-.2.2-34 34.3c-12.8 12.8-20.1 28.4-21.7 46.5-2.4 29.2 6.2 56.4 12.8 74.2 16.2 43.7 40.4 84.2 76.5 127.6 43.8 52.3 96.5 93.6 156.7 122.7 23 10.9 53.7 23.8 88 26 2.1.1 4.3.2 6.3.2 23.1 0 42.5-8.3 57.7-24.8.1-.2.3-.3.4-.5 5.2-6.3 11.2-12 17.5-18.1 4.3-4.1 8.7-8.4 13-12.9 9.9-10.3 15.1-22.3 15.1-34.6 0-12.4-5.3-24.3-15.4-34.3l-54.9-55.1zm35.8 105.3c-.1 0-.1.1 0 0-3.9 4.2-7.9 8-12.2 12.2-6.5 6.2-13.1 12.7-19.3 20-10.1 10.8-22 15.9-37.6 15.9-1.5 0-3.1 0-4.6-.1-29.7-1.9-57.3-13.5-78-23.4-56.6-27.4-106.3-66.3-147.6-115.6-34.1-41.1-56.9-79.1-72-119.9-9.3-24.9-12.7-44.3-11.2-62.6 1-11.7 5.5-21.4 13.8-29.7l34.1-34.1c4.9-4.6 10.1-7.1 15.2-7.1 6.3 0 11.4 3.8 14.6 7l.3.3c6.1 5.7 11.9 11.6 18 17.9 3.1 3.2 6.3 6.4 9.5 9.7l27.3 27.3c10.6 10.6 10.6 20.4 0 31-2.9 2.9-5.7 5.8-8.6 8.6-8.4 8.6-16.4 16.6-25.1 24.4-.2.2-.4.3-.5.5-8.6 8.6-7 17-5.2 22.7l.3.9c7.1 17.2 17.1 33.4 32.3 52.7l.1.1c27.6 34 56.7 60.5 88.8 80.8 4.1 2.6 8.3 4.7 12.3 6.7 3.6 1.8 7 3.5 9.9 5.3.4.2.8.5 1.2.7 3.4 1.7 6.6 2.5 9.9 2.5 8.3 0 13.5-5.2 15.2-6.9l34.2-34.2c3.4-3.4 8.8-7.5 15.1-7.5 6.2 0 11.3 3.9 14.4 7.3l.2.2 55.1 55.1c10.3 10.2 10.3 20.7.1 31.3zM256.056 112.706c26.2 4.4 50 16.8 69 35.8s31.3 42.8 35.8 69c1.1 6.6 6.8 11.2 13.3 11.2.8 0 1.5-.1 2.3-.2 7.4-1.2 12.3-8.2 11.1-15.6-5.4-31.7-20.4-60.6-43.3-83.5s-51.8-37.9-83.5-43.3c-7.4-1.2-14.3 3.7-15.6 11s3.5 14.4 10.9 15.6zM473.256 209.006c-8.9-52.2-33.5-99.7-71.3-137.5s-85.3-62.4-137.5-71.3c-7.3-1.3-14.2 3.7-15.5 11-1.2 7.4 3.7 14.3 11.1 15.6 46.6 7.9 89.1 30 122.9 63.7 33.8 33.8 55.8 76.3 63.7 122.9 1.1 6.6 6.8 11.2 13.3 11.2.8 0 1.5-.1 2.3-.2 7.3-1.1 12.3-8.1 11-15.4z"/></g></symbol><symbol id="phone" viewBox="0 0 32 32"><title>phone</title><path d="M25.719 32c-1.331 0-2.939-.334-4.708-1.001-3.877-1.462-8.095-4.35-11.877-8.133-3.783-3.783-6.672-8.002-8.135-11.879C-.33 7.462-.333 4.569.991 3.245c.191-.191.384-.395.584-.606C2.784 1.368 4.15-.063 5.96.002c1.247.052 2.456.827 3.694 2.367 3.657 4.549 2.008 6.169.1 8.049l-.337.334c-.312.312-.902 1.758 4.585 7.245 1.791 1.791 3.318 3.102 4.539 3.895.768.499 2.143 1.255 2.707.691l.339-.342c1.877-1.904 3.498-3.548 8.043.107 1.54 1.238 2.314 2.445 2.366 3.695.074 1.809-1.367 3.178-2.639 4.386-.21.2-.414.394-.605.583-.658.659-1.709.989-3.034.989zM5.832 1.076c-1.286 0-2.448 1.223-3.475 2.304-.207.217-.407.428-.604.625-.987.986-.887 3.577.254 6.602 1.41 3.737 4.212 7.821 7.889 11.498 3.677 3.676 7.758 6.477 11.496 7.886 3.026 1.143 5.616 1.24 6.601.255.197-.197.408-.397.625-.603 1.105-1.05 2.359-2.241 2.304-3.562-.038-.907-.699-1.884-1.964-2.901-3.788-3.046-4.847-1.971-6.603-.189l-.344.348c-.84.841-2.203.654-4.055-.549-1.284-.835-2.871-2.194-4.713-4.037-4.554-4.553-6.01-7.339-4.585-8.768l.343-.339c1.786-1.757 2.863-2.817-.184-6.606-1.019-1.265-1.994-1.926-2.902-1.964l-.084-.001z"/></symbol><symbol id="quote" viewBox="0 0 32 32"><title>quote</title><path d="M17.46 10.219c0-1.913.642-3.446 1.928-4.599s2.887-1.731 4.797-1.731c2.441 0 4.352.775 5.737 2.324S32 9.823 32 12.395c0 2.637-.411 4.88-1.236 6.726s-1.812 3.377-2.968 4.599c-1.152 1.22-2.356 2.176-3.61 2.868-1.252.692-2.34 1.201-3.263 1.533l-3.166-5.341c1.319-.529 2.441-1.369 3.363-2.523.924-1.154 1.451-2.39 1.584-3.708-1.318 0-2.523-.579-3.611-1.732s-1.631-2.687-1.631-4.598zm-17.112 0c0-1.913.643-3.446 1.929-4.599 1.286-1.155 2.886-1.731 4.797-1.731 2.442 0 4.352.775 5.737 2.324s2.078 3.61 2.078 6.182c0 2.637-.411 4.88-1.236 6.726s-1.812 3.377-2.967 4.599c-1.152 1.22-2.357 2.176-3.611 2.868-1.252.692-2.339 1.201-3.263 1.533L.647 22.78c1.319-.529 2.44-1.369 3.362-2.523.924-1.154 1.452-2.39 1.583-3.708-1.318 0-2.523-.579-3.61-1.732C.893 13.663.349 12.13.349 10.219z"/></symbol><symbol id="send" viewBox="0 0 32 32"><title>send</title><path d="M25.391 9.529l-3.319 2.129c-.552.356-1.108.707-1.658 1.067l-3.307 2.147c-.552.357-1.101.718-1.65 1.079l-1.648 1.083c-.549.361-1.099.72-1.646 1.085l-1.642 1.092c-.547.364-1.095.727-1.64 1.095l-1.636 1.101-1.174.797 2.975 5.438a1.184 1.184 0 0 0 1.813.328l2.165-1.868-1.026-.527-.389-.122c-.025-.008-.016-.032.017-.068l-.099-.051a.924.924 0 0 1-.228-1.48c.77-.762 1.544-1.52 2.31-2.285l2.302-2.293 3.439-3.453 3.426-3.466 3.044-3.103-.431.275z"/><path d="M30.376 3.795a3.766 3.766 0 0 0-.84.377L.531 18.258c-.784.375-.675 1.524.167 1.744l3.805.992c.6-.356 1.199-.714 1.797-1.072l1.688-1.019c.564-.338 1.124-.681 1.685-1.024l1.683-1.028c.562-.341 1.119-.689 1.679-1.034l1.677-1.037c.559-.345 1.118-.691 1.675-1.04l3.342-2.092c.558-.347 1.111-.702 1.667-1.053l3.331-2.11c.556-.35 1.108-.707 1.662-1.061l3.32-2.127a.628.628 0 1 1 .793.964l-.003.003c-.75.781-1.505 1.557-2.251 2.342l-4.485 4.701-3.35 3.539-1.113 1.183-2.224 2.369-2.215 2.377c-.442.473-.881.948-1.32 1.424l1.794.837 9.501 2.885a.933.933 0 0 0 1.171-.648l5.948-21.917c.26-.957-.627-1.84-1.578-1.561z"/></symbol><symbol id="smartphone" viewBox="0 0 32 32"><title>smartphone</title><path d="M18.934 16.531a.533.533 0 0 0-.533.533v7.469h-16V4.266h16v7.466a.533.533 0 1 0 1.066 0V2.349A2.352 2.352 0 0 0 17.117 0H3.683a2.352 2.352 0 0 0-2.349 2.349V29.65A2.353 2.353 0 0 0 3.683 32h13.434a2.352 2.352 0 0 0 2.349-2.349V17.064a.532.532 0 0 0-.533-.533zM3.683 1.067h13.434c.707 0 1.283.575 1.283 1.283v.851h-16V2.35a1.286 1.286 0 0 1 1.283-1.283zm13.434 29.866H3.683A1.284 1.284 0 0 1 2.4 29.65v-4.051h16v4.051c0 .707-.575 1.283-1.283 1.283z"/><path d="M10.401 26.133c-1.177 0-2.133.957-2.133 2.133s.957 2.133 2.133 2.133 2.133-.957 2.133-2.133-.957-2.133-2.133-2.133zm0 3.2a1.068 1.068 0 0 1 0-2.134 1.067 1.067 0 0 1 0 2.134zM8.267 2.667H10.4a.533.533 0 1 0 0-1.066H8.267a.533.533 0 1 0 0 1.066zM12.001 2.667h.533a.533.533 0 1 0 0-1.066h-.533a.533.533 0 1 0 0 1.066zM30.626 14.604a.532.532 0 0 0-.116-.581l-6.399-6.399a.533.533 0 1 0-.754.754l5.49 5.49H9.868a.533.533 0 1 0 0 1.066h18.979l-5.49 5.49a.532.532 0 0 0 .377.91.532.532 0 0 0 .377-.156l6.399-6.399a.53.53 0 0 0 .116-.174z"/></symbol><symbol id="user" viewBox="0 0 32 32"><title>user</title><path d="M15.884 17.242h.212c1.942-.033 3.512-.716 4.672-2.021 2.551-2.876 2.127-7.806 2.081-8.277-.166-3.532-1.836-5.222-3.214-6.01C18.608.344 17.408.026 16.07 0H15.957c-.736 0-2.18.119-3.565.908C11 1.697 9.304 3.386 9.138 6.945c-.046.471-.47 5.401 2.081 8.277 1.153 1.305 2.724 1.988 4.665 2.021zM10.907 7.11c0-.02.007-.04.007-.053.219-4.751 3.592-5.262 5.036-5.262h.08c1.789.04 4.831.769 5.036 5.262 0 .02 0 .04.007.053.007.046.471 4.552-1.637 6.925-.835.941-1.948 1.405-3.413 1.418h-.066c-1.458-.013-2.578-.477-3.406-1.418-2.101-2.359-1.65-6.885-1.643-6.925z"/><path d="M29.608 25.42v-.02c0-.053-.007-.106-.007-.166-.04-1.312-.126-4.38-3.002-5.361l-.066-.02c-2.989-.762-5.474-2.485-5.5-2.505-.404-.285-.961-.186-1.246.219s-.186.961.219 1.246c.113.08 2.75 1.915 6.05 2.763 1.544.55 1.716 2.2 1.763 3.711 0 .06 0 .113.007.166.007.596-.033 1.517-.139 2.048-1.073.61-5.281 2.717-11.683 2.717-6.375 0-10.609-2.114-11.689-2.724-.106-.53-.152-1.451-.139-2.048 0-.053.007-.106.007-.166.046-1.511.219-3.161 1.763-3.711 3.3-.848 5.937-2.69 6.05-2.763a.894.894 0 1 0-1.027-1.465c-.027.02-2.498 1.743-5.5 2.505a.777.777 0 0 0-.066.02c-2.876.987-2.962 4.056-3.002 5.361 0 .06 0 .113-.007.166v.02c-.007.345-.013 2.114.338 3.002a.848.848 0 0 0 .345.417C3.276 28.965 8.04 32 16.012 32s12.736-3.042 12.935-3.168a.893.893 0 0 0 .345-.417c.331-.881.325-2.651.318-2.995z"/></symbol><symbol id="youtube" viewBox="0 0 32 32"><title>youtube</title><path d="M27.907 4.888l-2.573-.307c-2.802-.366-6.044-.575-9.333-.575s-6.531.209-9.711.615l.377-.039-2.533.32A4.685 4.685 0 0 0 .001 9.528v12.934a4.681 4.681 0 0 0 4.07 4.624l.024.003 2.533.32c2.813.371 6.067.584 9.37.587h.003a76.616 76.616 0 0 0 9.713-.627l-.38.04 2.533-.32A4.686 4.686 0 0 0 32 22.464V9.53a4.681 4.681 0 0 0-4.07-4.638l-.024-.003zM22.36 16.554l-9.333 6a.667.667 0 0 1-1.027-.56v-12a.667.667 0 0 1 1.03-.559l-.003-.002 9.333 6a.667.667 0 0 1 .003 1.118l-.003.002z"/></symbol></svg>